<?xml version="1.0" encoding="UTF-8" standalone="no"?>
<svg
   xmlns:dc="http://purl.org/dc/elements/1.1/"
   xmlns:cc="http://creativecommons.org/ns#"
   xmlns:rdf="http://www.w3.org/1999/02/22-rdf-syntax-ns#"
   xmlns:svg="http://www.w3.org/2000/svg"
   xmlns="http://www.w3.org/2000/svg"
   xmlns:xlink="http://www.w3.org/1999/xlink"
   xmlns:sodipodi="http://sodipodi.sourceforge.net/DTD/sodipodi-0.dtd"
   xmlns:inkscape="http://www.inkscape.org/namespaces/inkscape"
   id="b543c902-2711-464d-9f40-b15eb324e31e"
   data-name="Layer 1"
   width="1038.23"
   height="693.31"
   viewBox="0 0 1038.23 693.31"
   version="1.1"
   sodipodi:docname="degrade.svg"
   inkscape:version="0.92.5 (2060ec1f9f, 2020-04-08)">
  <metadata
     id="metadata5416">
    <rdf:RDF>
      <cc:Work
         rdf:about="">
        <dc:format>image/svg+xml</dc:format>
        <dc:type
           rdf:resource="http://purl.org/dc/dcmitype/StillImage" />
        <dc:title>version control</dc:title>
      </cc:Work>
    </rdf:RDF>
  </metadata>
  <sodipodi:namedview
     pagecolor="#ffffff"
     bordercolor="#666666"
     borderopacity="1"
     objecttolerance="10"
     gridtolerance="10"
     guidetolerance="10"
     inkscape:pageopacity="0"
     inkscape:pageshadow="2"
     inkscape:window-width="3000"
     inkscape:window-height="1878"
     id="namedview5414"
     showgrid="false"
     inkscape:zoom="1.925571"
     inkscape:cx="500.54524"
     inkscape:cy="325.88194"
     inkscape:window-x="0"
     inkscape:window-y="48"
     inkscape:window-maximized="1"
     inkscape:current-layer="b543c902-2711-464d-9f40-b15eb324e31e" />
  <defs
     id="defs5313">
    <linearGradient
       id="be976a09-f639-4984-bf14-ee296c482822"
       x1="320.96"
       y1="796.01"
       x2="320.96"
       y2="284.81"
       gradientUnits="userSpaceOnUse">
      <stop
         offset="0"
         stop-color="gray"
         stop-opacity="0.25"
         id="stop5306" />
      <stop
         offset="0.54"
         stop-color="gray"
         stop-opacity="0.12"
         id="stop5308" />
      <stop
         offset="1"
         stop-color="gray"
         stop-opacity="0.1"
         id="stop5310" />
    </linearGradient>
    <linearGradient
       gradientUnits="userSpaceOnUse"
       gradientTransform="matrix(-1, 0, 0, 1, 2778, 0)"
       y2="402.78"
       x2="2028.19"
       y1="403.28"
       x1="2028.19"
       id="d20faab1-6ab6-432b-bba0-607013892761">
      <stop
         id="stop6386"
         stop-opacity="0.25"
         stop-color="gray"
         offset="0" />
      <stop
         id="stop6388"
         stop-opacity="0.12"
         stop-color="gray"
         offset="0.54" />
      <stop
         id="stop6390"
         stop-opacity="0.1"
         stop-color="gray"
         offset="1" />
    </linearGradient>
    <linearGradient
       xlink:href="#d20faab1-6ab6-432b-bba0-607013892761"
       y2="175.81"
       x2="2192.47"
       y1="835.84"
       x1="2192.47"
       id="cabf670e-bbb1-4872-bc54-c659c98b3878" />
    <linearGradient
       inkscape:collect="always"
       xlink:href="#d20faab1-6ab6-432b-bba0-607013892761"
       id="linearGradient6572"
       gradientUnits="userSpaceOnUse"
       gradientTransform="matrix(-1,0,0,1,2778,0)"
       x1="2028.19"
       y1="403.28"
       x2="2028.19"
       y2="402.78" />
  </defs>
  <title
     id="title5315">version control</title>
  <path
     d="m 389.09682,603.31866 c -2.74175,-6.22399 -5.34056,-13.38158 -2.59882,-19.60557 a 16.697382,16.662136 0 0 1 8.64105,-8.10415 41.581028,41.493257 0 0 1 11.69467,-2.8786 163.21853,162.874 0 0 1 38.02066,-0.51867 c 0.92257,7.28726 -1.02654,14.67825 -2.70277,21.71914 -1.52031,6.48331 -2.39091,7.44285 -9.09585,7.77998 -4.34002,0.2334 -42.93241,3.90296 -43.95894,1.60787 z"
     id="path5321"
     inkscape:connector-curvature="0"
     style="fill:#fbbebe;stroke-width:1.29803491" />
  <ellipse
     cx="504.80899"
     cy="509.46609"
     rx="185.81522"
     ry="51.866573"
     id="ellipse5323"
     style="fill:#464353;stroke-width:1.29803491" />
  <ellipse
     cx="504.80899"
     cy="509.46609"
     rx="185.81522"
     ry="51.866573"
     id="ellipse5325"
     style="opacity:0.1;stroke-width:1.29803491" />
  <path
     d="m 538.12582,235.66246 c -6.3693,12.28154 -16.94776,21.87133 -29.8084,27.02249 -7.59284,2.76084 -18.69972,-18.05509 -26.77817,-17.84458 -8.82297,0.40197 -14.7119,22.16247 -23.00212,19.15421 -11.12293,-4.01967 -20.36171,-12.24051 -27.28755,-21.82286 -6.92584,-9.58235 -11.69467,-20.52619 -15.83977,-31.56081 -2.18301,-5.74423 -4.26206,-11.86448 -3.23553,-17.93287 6.69195,-1.5171 14.02061,-3.74736 17.47703,-9.67312 2.94966,-5.08292 2.13103,-11.17724 0.42881,-16.9863 -0.48078,-1.64676 -1.03953,-3.28055 -1.59828,-4.84952 -1.2994,-3.76033 -5.78235,-10.90495 -2.59881,-14.12068 1.98809,-2.03576 10.31729,-3.07309 13.18898,-4.39569 8.84897,-4.07152 17.00924,-9.95838 26.72881,-11.89041 8.40716,-1.67269 17.0872,-0.10373 25.48137,1.6338 1.11345,0.16159 2.18289,0.54525 3.14457,1.1281 1.09649,0.92212 1.90767,2.13632 2.33893,3.50099 2.39091,5.80906 3.79426,12.22755 5.71739,18.28297 2.00109,6.34069 4.57391,12.29237 9.39471,16.7918 3.75529,3.51396 8.53711,5.71829 13.21497,7.85779 l 11.51275,5.26445 c 2.04787,0.76517 3.90531,1.96398 5.44451,3.51396 1.50554,2.06502 2.40539,4.50745 2.59882,7.05385 2.06282,13.64452 -0.21878,27.59097 -6.52302,39.87243 z"
     id="path5327"
     inkscape:connector-curvature="0"
     style="fill:#fbbebe;stroke-width:1.29803491"
     sodipodi:nodetypes="ccccscccccccccccccccccc" />
  <path
     d="m 502.4311,155.30818 a 59.772728,59.646557 0 0 1 -72.33799,10.71044 c -0.48078,-1.64676 -1.03953,-3.28055 -1.59827,-4.84952 -1.29941,-3.76033 -5.78236,-10.90495 -2.59882,-14.12068 1.9881,-2.03576 10.31729,-3.07309 13.18899,-4.39569 8.84896,-4.07152 17.00923,-9.95838 26.72881,-11.89041 8.40716,-1.67269 17.08719,-0.10373 25.48137,1.6338 a 8.381176,8.3634846 0 0 1 3.14456,1.1281 7.5625494,7.5465862 0 0 1 2.33893,3.50099 c 2.32594,5.80906 3.7293,12.22755 5.65242,18.28297 z"
     id="path5329"
     inkscape:connector-curvature="0"
     style="opacity:0.1;stroke-width:1.29803491" />
  <ellipse
     cx="455.1752"
     cy="103.60027"
     id="circle5331"
     style="fill:#fbbebe;stroke-width:1.29803491"
     rx="59.772728"
     ry="59.646553" />
  <path
     d="m 641.44168,304.96917 -4.91176,-29.69361 c -2.48187,-14.89868 -5.0417,-30.08261 -11.98053,-43.50309 -4.56092,-8.79138 -11.79862,-17.16784 -21.55717,-18.90537 -1.92225,-0.17097 -3.81142,-0.60735 -5.61343,-1.29666 -2.8587,-1.37446 -4.41799,-4.46052 -6.61399,-6.74266 -5.66541,-5.86092 -14.8912,-5.95168 -22.47974,-8.93401 -6.70494,-2.59333 -12.18844,-7.58548 -18.29566,-11.39768 -6.10721,-3.81219 -13.70874,-6.48332 -20.46565,-4.04559 -1.09151,11.60514 -2.24798,23.46963 -7.18573,34.03744 -13.72112,29.3722 -51.07868,38.65727 -77.00286,19.13876 -11.57773,-8.70062 -18.99734,-22.12109 -22.45376,-36.16397 -0.84461,-3.42319 -1.80617,-7.35209 -4.96373,-8.92105 -3.41744,-1.71159 -7.52358,0.36307 -10.39526,2.8786 -5.19763,4.65502 -9.44669,11.31988 -16.28158,12.88884 -2.46887,0.57053 -5.19763,0.45384 -7.25068,1.94499 -1.36448,1.25656 -2.50668,2.73389 -3.37847,4.36977 -3.03845,4.2843 -8.03662,6.7513 -13.29293,6.56112 -2.37792,-0.11671 -5.19763,-0.66131 -6.82189,1.06326 -1.20845,1.29666 -1.2994,3.31946 -2.59881,4.52536 -1.7542,1.69863 -4.5999,0.86876 -7.04279,0.778 -4.62589,-0.1945 -8.92692,2.76189 -11.57771,6.48332 -1.30654,1.83424 -10.65763,5.23223 -17.85449,28.22945 -7.40462,23.66108 -12.65052,66.94388 -13.30946,69.20588 14.20252,31.56081 53.16291,-21.4897 67.36543,10.07111 0.6654,1.18955 1.01853,2.5277 1.02653,3.88999 -0.28482,1.41394 -0.88923,2.74437 -1.76719,3.88999 -6.96483,11.16428 -6.74392,25.20716 -5.97728,38.3294 0.76665,13.12224 1.70222,26.98358 -4.17109,38.74432 -1.59828,3.2287 -3.67733,6.18509 -5.19763,9.41379 -3.56037,7.31319 -4.8468,30.70501 -2.76774,38.5628 h 293.76996 c -5.60044,-15.36548 -3.46941,-46.20016 -2.29994,-62.51219 0.81862,-11.41064 -1.29941,-22.80832 -2.209,-34.21897 -1.9881,-23.30106 -0.58473,-45.40919 -4.44397,-68.67134 z"
     id="path5333"
     style="fill:#7989c1;fill-opacity:1;stroke:#000030;stroke-width:1.29803491;stroke-opacity:0.05994551;fill-rule:nonzero"
     inkscape:connector-curvature="0"
     sodipodi:nodetypes="cccccccsccccccccccccccsccccsccccccc" />
  <path
     d="m 311.57419,338.94177 a 45.999013,45.901916 0 0 0 -0.15593,11.31988 l 3.7293,53.51333 c 0.35084,5.04403 0.70167,10.07509 1.16946,15.10615 0.89659,9.76388 2.23498,19.44996 3.89822,29.12308 a 5.1976285,5.1866572 0 0 0 5.32757,5.04402 c 16.4375,3.47506 33.42075,3.33243 50.1961,2.38586 25.59832,-1.42633 51.15766,-4.68096 76.79496,-4.12339 6.60099,0.14263 14.29348,0 18.29565,-5.18665 4.00217,-5.18666 1.67624,-13.57608 -3.54738,-17.7643 -5.22361,-4.18824 -12.31838,-5.18666 -19.02332,-5.18666 -8.87495,-0.0908 -17.7499,1.16699 -26.59886,0.64832 -8.12129,-0.47976 -16.06068,-2.43772 -23.93509,-4.39569 l -22.08991,-5.48488 c 0.84461,-6.67782 3.39145,-12.96665 5.80835,-19.30733 4.34002,-11.24209 8.39417,-22.8602 8.47213,-34.90621 0.078,-12.04601 -4.46996,-24.71442 -14.35844,-31.61267 -8.13429,-5.66643 -18.60752,-6.71672 -28.52199,-6.48332 -7.21171,0.20746 -19.67303,-1.5171 -26.26102,1.29666 -5.21062,2.28212 -8.22525,10.91791 -9.1998,16.0138 z"
     id="path5335"
     inkscape:connector-curvature="0"
     style="fill:#fbbebe;stroke-width:1.29803491" />
  <path
     d="m 656.47581,461.29502 c 4.32703,-1.64677 9.09586,-1.0503 13.73474,-0.42791 14.93019,2.03577 30.08128,4.1234 43.91996,10.07509 6.49704,2.77486 12.68222,6.48332 17.07421,11.94227 3.89823,4.91436 6.17219,10.93089 8.3292,16.85664 l 4.98973,13.64091 c 1.89713,5.18666 3.82026,10.47705 4.35301,15.98787 1.55929,16.325 -9.6286,31.71641 -23.70119,40.19659 -14.07258,8.48019 -30.64001,11.50141 -46.77866,14.66528 -16.13863,3.16386 -32.34224,6.66485 -48.4159,10.37331 a 194.91107,194.49964 0 0 1 -22.77861,4.47349 c -17.20415,1.945 -35.18795,-0.92063 -51.53449,4.75876 -6.49703,2.26916 -12.87712,5.64049 -19.62105,7.20945 a 122.05331,121.79568 0 0 1 -13.56581,2.0617 l -30.93887,3.52693 a 168.78,168.42372 0 0 1 -18.97135,1.45226 c -13.51383,0 -26.80677,-3.18979 -39.93079,-6.37958 a 10.096393,10.075082 0 0 1 -3.89822,-1.56897 c -2.07904,-1.6338 -2.53383,-4.52536 -2.8327,-7.14462 q -1.98809,-17.38827 -3.48241,-34.81544 c -0.31186,-3.77329 -0.54575,-7.85779 1.5203,-11.03461 2.59881,-3.89 7.66651,-5.10886 12.2924,-5.86093 a 320.79764,320.12048 0 0 1 59.35692,-4.11042 c 7.54955,-7.53362 19.99787,-7.57252 29.88635,-11.66998 a 88.866453,88.678871 0 0 0 10.5382,-5.71828 137.73716,137.44642 0 0 1 57.8626,-18.24407 53.860425,53.746735 0 0 0 11.8376,-1.68567 c 7.6535,-2.3729 14.63132,-8.83028 22.49274,-7.24835 0.97455,-2.6841 1.65024,-6.27586 3.89822,-8.11712 1.11749,-0.94656 2.49486,-1.58193 3.52139,-2.59333 2.17001,-2.19136 2.36492,-5.64049 2.04007,-8.70062 -0.32486,-3.06012 -1.05252,-6.19805 -0.25989,-9.18038 a 12.721196,12.694343 0 0 1 1.44235,-3.20276 c 3.89822,-6.71672 9.78453,-10.16584 17.61995,-9.51751 z"
     id="path5337"
     inkscape:connector-curvature="0"
     style="fill:#464353;stroke-width:1.29803491" />
  <path
     d="m 656.47581,461.29502 c 4.32703,-1.64677 9.09586,-1.0503 13.73474,-0.42791 14.93019,2.03577 30.08128,4.1234 43.91996,10.07509 6.49704,2.77486 12.68222,6.48332 17.07421,11.94227 3.89823,4.91436 6.17219,10.93089 8.3292,16.85664 l 4.98973,13.64091 c 1.89713,5.18666 3.82026,10.47705 4.35301,15.98787 1.55929,16.325 -9.6286,31.71641 -23.70119,40.19659 -14.07258,8.48019 -30.64001,11.50141 -46.77866,14.66528 -16.13863,3.16386 -32.34224,6.66485 -48.4159,10.37331 a 194.91107,194.49964 0 0 1 -22.77861,4.47349 c -17.20415,1.945 -35.18795,-0.92063 -51.53449,4.75876 -6.49703,2.26916 -12.87712,5.64049 -19.62105,7.20945 a 122.05331,121.79568 0 0 1 -13.56581,2.0617 l -30.93887,3.52693 a 168.78,168.42372 0 0 1 -18.97135,1.45226 c -13.51383,0 -26.80677,-3.18979 -39.93079,-6.37958 a 10.096393,10.075082 0 0 1 -3.89822,-1.56897 c -2.07904,-1.6338 -2.53383,-4.52536 -2.8327,-7.14462 q -1.98809,-17.38827 -3.48241,-34.81544 c -0.31186,-3.77329 -0.54575,-7.85779 1.5203,-11.03461 2.59881,-3.89 7.66651,-5.10886 12.2924,-5.86093 a 320.79764,320.12048 0 0 1 59.35692,-4.11042 c 7.54955,-7.53362 19.99787,-7.57252 29.88635,-11.66998 a 88.866453,88.678871 0 0 0 10.5382,-5.71828 137.73716,137.44642 0 0 1 57.8626,-18.24407 53.860425,53.746735 0 0 0 11.8376,-1.68567 c 7.6535,-2.3729 14.63132,-8.83028 22.49274,-7.24835 0.97455,-2.6841 1.65024,-6.27586 3.89822,-8.11712 1.11749,-0.94656 2.49486,-1.58193 3.52139,-2.59333 2.17001,-2.19136 2.36492,-5.64049 2.04007,-8.70062 -0.32486,-3.06012 -1.05252,-6.19805 -0.25989,-9.18038 a 12.721196,12.694343 0 0 1 1.44235,-3.20276 c 3.89822,-6.71672 9.78453,-10.16584 17.61995,-9.51751 z"
     id="path5339"
     inkscape:connector-curvature="0"
     style="opacity:0.05;stroke-width:1.29803491" />
  <path
     d="m 401.05136,611.33204 c -8.04333,9.29708 -15.1251,12.61655 -27.71635,12.31831 q -11.6167,-0.2723 -23.20741,-1.2059 a 130.2006,129.92576 0 0 0 -15.90475,-0.7391 c -16.03469,0.62241 -31.51062,7.94855 -47.50632,6.66486 a 33.680632,33.609539 0 0 1 -6.97782,-1.29667 20.309734,20.266863 0 0 1 -9.47268,-5.73125 c -3.06659,-3.46209 -4.53493,-8.05228 -5.37954,-12.59061 -4.27505,-23.26215 7.4456,-48.59898 27.96324,-60.43753 a 20.504645,20.461362 0 0 1 8.88794,-3.15089 21.06339,21.018928 0 0 1 8.9919,1.97093 l 0.19491,0.0778 a 67.997975,67.854442 0 0 1 22.27184,14.83385 12.552272,12.525777 0 0 0 3.40445,2.73595 11.694664,11.669979 0 0 0 4.01516,0.75207 l 17.07422,1.07623 a 40.463538,40.378126 0 0 1 8.57608,1.17996 68.166897,68.023009 0 0 1 9.01789,3.89 c 9.18681,4.09746 19.37415,5.18665 29.30163,6.76858 a 4.379002,4.3697587 0 0 1 2.59881,1.03733 4.0671443,4.0585592 0 0 1 0.80563,1.68567 33.147876,33.077906 0 0 1 -6.93883,30.16042 z"
     id="path5341"
     inkscape:connector-curvature="0"
     style="fill:#3f3d56;stroke-width:1.29803491" />
  <path
     d="m 310.92448,547.22495 a 102.52322,102.30681 0 0 0 -17.08721,21.31717 106.91522,106.68953 0 0 0 -13.95563,42.19345 78.48419,78.318523 0 0 0 -0.14293,16.35094 20.309734,20.266863 0 0 1 -9.47268,-5.73126 c -3.06659,-3.46209 -4.53493,-8.05228 -5.37954,-12.59061 -4.27505,-23.26216 7.4456,-48.59898 27.96324,-60.43752 a 20.504645,20.461362 0 0 1 8.88794,-3.15089 21.06339,21.018928 0 0 1 8.9919,1.97093 z"
     id="path5343"
     inkscape:connector-curvature="0"
     style="opacity:0.1;stroke-width:1.29803491" />
  <path
     d="m 641.6106,579.48596 c 9.55064,-0.25933 20.27075,-0.73909 27.28755,5.67939 6.69195,6.06839 7.57554,16.07864 8.01735,25.09046 l 0.50676,10.46408 c 0.15593,3.1898 0.28587,6.48332 -1.00054,9.43972 -2.28696,5.18665 -8.5631,7.68921 -14.29348,7.39098 -5.73039,-0.29823 -10.99299,-2.80079 -16.22959,-5.05699 A 228.30583,227.82391 0 0 0 601.7188,618.60633 q 0.74066,-10.85308 2.46888,-21.60243 c 0.79264,-4.96622 0.92257,-13.27785 4.24905,-17.40123 3.5214,-4.3568 8.1083,-1.99687 12.89013,-1.19294 a 103.47179,103.25338 0 0 0 20.28374,1.07623 z"
     id="path5345"
     inkscape:connector-curvature="0"
     style="fill:#fbbebe;stroke-width:1.29803491" />
  <path
     d="m 389.21376,474.33945 c 0,1.29667 -2.04007,0 -2.22198,-1.38742 -1.42936,-10.49002 -9.77155,-19.13877 -19.49111,-23.33996 -9.71956,-4.20119 -20.79052,-4.42162 -31.31571,-3.42319 -15.91774,1.50413 -33.78459,7.58548 -39.60593,22.43229 -1.37737,3.47506 -2.00109,7.23539 -3.69032,10.56781 -1.87115,3.65659 -4.92475,6.57409 -6.95183,10.12695 -3.4954,6.14619 -3.63833,13.67981 -2.37791,20.62993 3.39145,18.5423 16.09965,34.40051 31.49763,45.38325 15.39797,10.98275 33.39476,17.54387 51.33957,23.45665 a 890.34077,888.4614 0 0 0 145.5336,34.68578 c 8.00435,1.20589 16.08666,2.32103 23.75316,4.88842 6.86087,2.29509 13.27994,5.73126 19.98488,8.42832 15.59289,6.24992 32.36824,8.48018 48.98765,10.67154 2.83271,0.36307 6.08123,0.62241 8.17327,-1.29666 2.70277,-2.50256 1.80618,-6.85936 1.03953,-10.45111 a 56.329299,56.210397 0 0 1 6.63997,-39.88539 c 2.78073,-4.668 6.39308,-9.45269 5.87332,-14.85978 -0.62372,-6.30179 -6.91285,-10.76231 -13.17598,-11.77371 -6.26315,-1.01139 -12.63025,0.47976 -18.91937,1.29667 -2.17002,0.28526 -4.53493,0.46679 -6.43207,-0.63537 a 12.851137,12.82401 0 0 1 -2.52085,-2.23026 28.495998,28.435848 0 0 0 -33.18686,-4.62909 c -2.32593,1.29665 -5.84733,-1.5949 -8.26423,-2.6841 l -27.32653,-12.34424 c -31.39368,-14.17255 -62.94328,-28.40992 -96.15613,-37.38284 a 20.192787,20.150163 0 0 1 -7.40662,-3.07309 c -1.65024,-1.29667 -2.83271,-3.06013 -4.35301,-4.49943 -3.31349,-3.12495 -7.92638,-4.36975 -11.90257,-6.58705 -3.97618,-2.21729 -8.43315,-7.63736 -7.52357,-12.08492 z"
     id="path5347"
     inkscape:connector-curvature="0"
     style="fill:#464353;stroke-width:1.29803491" />
  <path
     d="m 810.49455,643.80052 c -4.36601,8.07821 -12.83815,13.10927 -21.934,15.18393 a 43.530139,43.438253 0 0 1 -6.93883,0.98546 c -11.49976,0.71317 -22.85657,-2.46366 -33.94051,-5.60158 l -15.04714,-4.22713 a 47.493331,47.39308 0 0 0 -7.92638,-1.76346 54.393182,54.278367 0 0 0 -10.967,0.37603 194.37831,193.96801 0 0 1 -53.27569,-2.38586 9.394714,9.3748826 0 0 1 -4.11912,-1.46524 20.465662,20.422462 0 0 1 -2.8717,-3.51395 c -4.09312,-4.91436 -8.49812,-7.77999 -3.65133,-14.26331 2.79373,-3.76032 7.97836,-5.64048 10.14837,-9.95838 2.17002,-4.31789 0.77965,-10.45111 -0.50676,-14.91164 -1.75421,-6.15915 -7.52358,-8.81731 -9.58963,-14.47077 -1.54629,-4.26603 1.05252,-9.21928 4.96374,-11.54031 3.91121,-2.32103 8.74501,-2.50257 13.25395,-1.90611 4.50894,0.59647 8.92692,1.86721 13.46185,2.2173 13.33192,1.06327 26.9627,-5.79608 39.76187,-1.93202 2.81971,0.85579 5.48349,2.21729 8.34219,2.96935 a 27.742342,27.683783 0 0 0 16.67139,-1.43929 c 1.87114,-0.7002 3.70331,-1.54303 5.52248,-2.37289 a 44.478706,44.384819 0 0 1 11.10993,-4.0067 c 12.48731,-2.1395 24.06502,6.48332 33.48573,14.89867 a 47.350396,47.250446 0 0 1 8.51111,9.20632 c 2.59882,4.04559 3.97619,8.75248 5.19763,13.39454 3.44343,11.99415 6.28913,25.50539 0.33785,36.52704 z"
     id="path5349"
     inkscape:connector-curvature="0"
     style="fill:#3f3d56;stroke-width:1.29803491" />
  <path
     d="m 810.49455,643.80052 c -4.36601,8.07821 -12.83815,13.10927 -21.934,15.18393 a 42.477619,42.387955 0 0 0 4.6129,-22.25075 c -0.77964,-12.33128 -6.21117,-23.94939 -13.13701,-34.19305 a 121.36463,121.10844 0 0 0 -14.4754,-17.59572 c -4.13211,-4.14933 -9.21279,-7.44286 -13.65676,-11.24209 a 44.478706,44.384819 0 0 1 11.10993,-4.00669 c 12.4873,-2.13949 24.06502,6.48332 33.48572,14.89868 a 47.350396,47.250446 0 0 1 8.51111,9.20631 c 2.59882,4.04559 3.97619,8.75248 5.19763,13.39454 3.39146,12.07195 6.23716,25.58319 0.28588,36.60484 z"
     id="path5351"
     inkscape:connector-curvature="0"
     style="opacity:0.1;stroke-width:1.29803491" />
  <rect
     x="379.41626"
     y="290.97818"
     width="289.76779"
     height="184.12633"
     rx="10.356275"
     id="rect5355"
     style="fill:#3f3d56;stroke-width:1.29803491" />
  <ellipse
     cx="523.65039"
     cy="383.04135"
     id="circle5357"
     style="fill:#ffffff;stroke-width:1.29803491"
     rx="7.7964425"
     ry="7.7799859" />
  <g
     id="g6570"
     transform="translate(1488.2072,6.3198484)">
    <path
       id="path6398"
       transform="translate(-118.9,-64.16)"
       d="m 854,522.26 a 10.88,10.88 0 0 0 -14.2,1.32 11.13,11.13 0 0 0 0.44,15.51 l 13.58,13.5 a 2.26,2.26 0 0 0 3.21,0 L 870.57,539 a 11.13,11.13 0 0 0 0.36,-15.51 10.92,10.92 0 0 0 -14.22,-1.24 2.28,2.28 0 0 1 -2.71,0.01 z"
       inkscape:connector-curvature="0"
       style="fill:#536dfe" />
    <path
       id="path6400"
       transform="translate(-118.9,-64.16)"
       d="m 262,214.26 a 10.88,10.88 0 0 0 -14.2,1.32 11.13,11.13 0 0 0 0.44,15.51 l 13.58,13.5 a 2.26,2.26 0 0 0 3.21,0 L 278.57,231 a 11.13,11.13 0 0 0 0.36,-15.51 10.92,10.92 0 0 0 -14.22,-1.24 2.28,2.28 0 0 1 -2.71,0.01 z"
       inkscape:connector-curvature="0"
       style="fill:#536dfe" />
    <path
       id="path6402"
       transform="translate(-118.9,-64.16)"
       d="m 136,489.26 a 10.88,10.88 0 0 0 -14.2,1.32 11.13,11.13 0 0 0 0.44,15.51 l 13.58,13.5 a 2.26,2.26 0 0 0 3.21,0 L 152.57,506 a 11.13,11.13 0 0 0 0.36,-15.51 10.92,10.92 0 0 0 -14.22,-1.24 2.28,2.28 0 0 1 -2.71,0.01 z"
       inkscape:connector-curvature="0"
       style="fill:#536dfe" />
    <path
       id="path6404"
       transform="translate(-118.9,-64.16)"
       d="m 853,187.26 a 10.88,10.88 0 0 0 -14.2,1.32 11.13,11.13 0 0 0 0.44,15.51 l 13.58,13.5 a 2.26,2.26 0 0 0 3.21,0 L 869.57,204 a 11.13,11.13 0 0 0 0.36,-15.51 10.92,10.92 0 0 0 -14.22,-1.24 2.28,2.28 0 0 1 -2.71,0.01 z"
       inkscape:connector-curvature="0"
       style="fill:#536dfe" />
    <rect
       id="rect6406"
       height="17"
       width="3"
       y="73.919998"
       x="651"
       style="fill:#3ad29f" />
    <rect
       id="rect6408"
       transform="rotate(90,744.03,55.05)"
       height="17"
       width="3"
       y="138.08"
       x="769.90002"
       style="fill:#3ad29f" />
    <rect
       id="rect6410"
       height="17"
       width="3"
       y="304.92001"
       x="783"
       style="fill:#3ad29f" />
    <rect
       id="rect6412"
       transform="rotate(90,876.03,286.05)"
       height="17"
       width="3"
       y="369.07999"
       x="901.90002"
       style="fill:#3ad29f" />
    <rect
       id="rect6414"
       height="17"
       width="3"
       y="515.91998"
       x="193"
       style="fill:#3ad29f" />
    <rect
       id="rect6416"
       transform="rotate(90,286.03,497.05)"
       height="17"
       width="3"
       y="580.08002"
       x="311.89999"
       style="fill:#3ad29f" />
    <rect
       id="rect6418"
       height="17"
       width="3"
       y="73.919998"
       x="124"
       style="fill:#3ad29f" />
    <rect
       id="rect6420"
       transform="rotate(90,217.03,55.05)"
       height="17"
       width="3"
       y="138.08"
       x="242.89999"
       style="fill:#3ad29f" />
    <rect
       id="rect6422"
       height="17"
       width="3"
       y="100.92"
       x="256"
       style="fill:#3ad29f" />
    <rect
       id="rect6424"
       transform="rotate(90,349.03,82.05)"
       height="17"
       width="3"
       y="165.08"
       x="374.89999"
       style="fill:#3ad29f" />
    <path
       id="path6426"
       transform="translate(-118.9,-64.16)"
       d="m 312,351 a 3.67,3.67 0 0 1 -2.05,-4.44 1.86,1.86 0 0 0 0.08,-0.41 v 0 a 1.84,1.84 0 0 0 -3.31,-1.22 v 0 a 1.82,1.82 0 0 0 -0.2,0.36 3.68,3.68 0 0 1 -4.44,2.05 2,2 0 0 0 -0.41,-0.08 v 0 a 1.84,1.84 0 0 0 -1.22,3.31 v 0 a 1.58,1.58 0 0 0 0.36,0.2 3.69,3.69 0 0 1 2.05,4.45 1.35,1.35 0 0 0 -0.08,0.4 v 0 a 1.84,1.84 0 0 0 3.31,1.22 v 0 a 2.08,2.08 0 0 0 0.2,-0.36 3.67,3.67 0 0 1 4.44,-2 1.86,1.86 0 0 0 0.41,0.08 v 0 a 1.85,1.85 0 0 0 1.22,-3.32 v 0 A 2.08,2.08 0 0 0 312,351 Z"
       inkscape:connector-curvature="0"
       style="fill:#f55f44" />
    <path
       id="path6428"
       transform="translate(-118.9,-64.16)"
       d="m 879,71 a 3.67,3.67 0 0 1 -2,-4.44 1.86,1.86 0 0 0 0.08,-0.41 v 0 a 1.84,1.84 0 0 0 -3.31,-1.22 v 0 a 1.82,1.82 0 0 0 -0.2,0.36 3.68,3.68 0 0 1 -4.44,2 2,2 0 0 0 -0.41,-0.08 v 0 a 1.84,1.84 0 0 0 -1.22,3.31 v 0 a 1.58,1.58 0 0 0 0.36,0.2 3.69,3.69 0 0 1 2.05,4.45 1.35,1.35 0 0 0 -0.08,0.4 v 0 a 1.84,1.84 0 0 0 3.31,1.22 v 0 a 2.08,2.08 0 0 0 0.2,-0.36 3.67,3.67 0 0 1 4.44,-2 1.86,1.86 0 0 0 0.41,0.08 v 0 a 1.85,1.85 0 0 0 1.22,-3.32 v 0 A 2.08,2.08 0 0 0 879,71 Z"
       inkscape:connector-curvature="0"
       style="fill:#3ad29f" />
    <path
       id="path6430"
       transform="translate(-118.9,-64.16)"
       d="m 527,87 a 3.67,3.67 0 0 1 -2,-4.44 1.86,1.86 0 0 0 0.08,-0.41 v 0 a 1.84,1.84 0 0 0 -3.31,-1.22 v 0 a 1.82,1.82 0 0 0 -0.2,0.36 3.68,3.68 0 0 1 -4.44,2 2,2 0 0 0 -0.41,-0.08 v 0 a 1.84,1.84 0 0 0 -1.22,3.31 v 0 a 1.58,1.58 0 0 0 0.36,0.2 3.69,3.69 0 0 1 2.05,4.45 1.35,1.35 0 0 0 -0.08,0.4 v 0 a 1.84,1.84 0 0 0 3.31,1.22 v 0 a 2.08,2.08 0 0 0 0.2,-0.36 3.67,3.67 0 0 1 4.44,-2 1.86,1.86 0 0 0 0.41,0.08 v 0 a 1.85,1.85 0 0 0 1.22,-3.32 v 0 A 2.08,2.08 0 0 0 527,87 Z"
       inkscape:connector-curvature="0"
       style="fill:#f55f44" />
    <path
       id="path6432"
       transform="translate(-118.9,-64.16)"
       d="m 342,461 a 3.67,3.67 0 0 1 -2.05,-4.44 1.86,1.86 0 0 0 0.08,-0.41 v 0 a 1.84,1.84 0 0 0 -3.31,-1.22 v 0 a 1.82,1.82 0 0 0 -0.2,0.36 3.68,3.68 0 0 1 -4.44,2.05 2,2 0 0 0 -0.41,-0.08 v 0 a 1.84,1.84 0 0 0 -1.22,3.31 v 0 a 1.58,1.58 0 0 0 0.36,0.2 3.69,3.69 0 0 1 2.05,4.45 1.35,1.35 0 0 0 -0.08,0.4 v 0 a 1.84,1.84 0 0 0 3.31,1.22 v 0 a 2.08,2.08 0 0 0 0.2,-0.36 3.67,3.67 0 0 1 4.44,-2 1.86,1.86 0 0 0 0.41,0.08 v 0 a 1.85,1.85 0 0 0 1.22,-3.32 v 0 A 2.08,2.08 0 0 0 342,461 Z"
       inkscape:connector-curvature="0"
       style="fill:#f55f44" />
    <path
       id="path6434"
       transform="translate(-118.9,-64.16)"
       d="m 784,333 a 3.67,3.67 0 0 1 -2,-4.44 1.86,1.86 0 0 0 0.08,-0.41 v 0 a 1.84,1.84 0 0 0 -3.31,-1.22 v 0 a 1.82,1.82 0 0 0 -0.2,0.36 3.68,3.68 0 0 1 -4.44,2.05 2,2 0 0 0 -0.41,-0.08 v 0 a 1.84,1.84 0 0 0 -1.22,3.31 v 0 a 1.58,1.58 0 0 0 0.36,0.2 3.69,3.69 0 0 1 2.05,4.45 1.35,1.35 0 0 0 -0.08,0.4 v 0 a 1.84,1.84 0 0 0 3.31,1.22 v 0 a 2.08,2.08 0 0 0 0.2,-0.36 3.67,3.67 0 0 1 4.44,-2 1.86,1.86 0 0 0 0.41,0.08 v 0 a 1.85,1.85 0 0 0 1.22,-3.32 v 0 A 2.08,2.08 0 0 0 784,333 Z"
       inkscape:connector-curvature="0"
       style="fill:#f55f44" />
    <path
       id="path6436"
       transform="translate(-118.9,-64.16)"
       d="m 1080,229 a 3.67,3.67 0 0 1 -2,-4.44 1.86,1.86 0 0 0 0.08,-0.41 v 0 a 1.84,1.84 0 0 0 -3.31,-1.22 v 0 a 1.82,1.82 0 0 0 -0.2,0.36 3.68,3.68 0 0 1 -4.44,2.05 2,2 0 0 0 -0.41,-0.08 v 0 a 1.84,1.84 0 0 0 -1.22,3.31 v 0 a 1.58,1.58 0 0 0 0.36,0.2 3.69,3.69 0 0 1 2,4.45 1.35,1.35 0 0 0 -0.08,0.4 v 0 a 1.84,1.84 0 0 0 3.31,1.22 v 0 a 2.08,2.08 0 0 0 0.2,-0.36 3.67,3.67 0 0 1 4.44,-2 1.86,1.86 0 0 0 0.41,0.08 v 0 a 1.85,1.85 0 0 0 1.22,-3.32 v 0 A 2.08,2.08 0 0 0 1080,229 Z"
       inkscape:connector-curvature="0"
       style="fill:#f55f44" />
    <path
       id="path6438"
       transform="translate(-118.9,-64.16)"
       d="m 749.73,402.78 0.16,0.5 a 2.66,2.66 0 0 1 -0.16,-0.5 z"
       inkscape:connector-curvature="0"
       style="fill:url(#linearGradient6572)" />
    <path
       id="path6440"
       transform="translate(-118.9,-64.16)"
       d="m 283.1,803.73 c -0.1,-0.14 -0.2,-0.28 -0.28,-0.42 -0.08,-0.14 -0.11,-0.2 -0.16,-0.3 a 4.23,4.23 0 0 1 -0.22,-0.42 l -0.12,-0.3 c -0.05,-0.14 -0.11,-0.29 -0.15,-0.43 l -0.08,-0.29 c 0,-0.14 -0.07,-0.29 -0.1,-0.44 v -0.27 c 0,-0.15 0,-0.31 0,-0.46 0,-0.15 0,-0.16 0,-0.25 0,-0.09 0,-0.32 0,-0.47 0,-0.15 0,-0.15 0,-0.23 l 0.06,-0.5 c 0,-0.06 0,-0.13 0,-0.19 a 4.87,4.87 0 0 1 0.12,-0.52 v -0.16 q 0.07,-0.27 0.18,-0.54 c 0,0 0,-0.09 0,-0.13 0,-0.04 0.15,-0.38 0.23,-0.57 v -0.08 c 0.09,-0.2 0.19,-0.4 0.29,-0.59 v 0 l 0.35,-0.61 v 0 a 21.56,21.56 0 0 1 5,-5.39 c 14.95,6.15 33.41,-0.88 33.41,-0.88 0,0 24.62,-12.31 22.86,-8.79 -0.59,1.18 -0.29,3.55 0.38,6.18 11.8,-2.47 18.3,-8.81 21.85,-14.55 l -13.44,-14.49 c 0,0 54.6,-30.82 60.72,-46.64 6.12,-15.82 36,-60.66 36,-60.66 0,0 9.67,-35.17 27.26,-43.08 0,0 35.07,-41.89 55.54,-77.82 -7.27,-18.09 -17.4,-46.37 -15.1,-58.46 2.87,-15 -0.11,-43.52 -1.3,-53.54 -9.73,8.11 -49.27,40.25 -64.64,39.48 -5.52,-0.28 -11.47,-3.24 -17,-7.17 -13.28,-8.41 -25.16,-23.6 -25.16,-23.6 1.79,0.17 3.26,-1.47 4.45,-4.21 -14.68,-16 -45.09,-48.76 -48.41,-49.42 -4.39,-0.88 -28.13,-42.21 -14.94,-51 13.19,-8.79 36.92,22.86 37.8,29 0.6,4.17 19,22.5 30.76,33.86 0,-0.29 0,-0.46 0,-0.46 l 1.74,0.87 c 0,-0.55 0,-0.87 0,-0.87 l 30.36,15.19 25.91,-35.41 c 0,0 7,-37.8 24.62,-44 17.62,-6.2 30.33,-25.05 30.33,-25.05 a 18,18 0 0 1 0.39,1.87 c 0.89,-1.17 1.37,-1.87 1.37,-1.87 0,0 0,0.15 0.1,0.42 a 45.93,45.93 0 0 0 1,-16.55 l -0.25,-0.15 c -0.11,-0.68 -0.22,-1.33 -0.34,-1.95 A 44,44 0 0 1 516.75,222 c -4.48,-3.13 -11,-5.08 -16.5,-7.46 -8.31,-3.57 -15.25,-8.82 -19.83,-15 a 17.47,17.47 0 0 1 9.19,0.19 c 0.37,-4.06 -4.32,-8.7 -0.67,-11.79 2.26,-1.92 6.47,-1.75 9.7,-0.8 3.23,0.95 6.15,2.52 9.58,2.94 6,0.73 11.59,-2.16 15.85,-5.28 4.26,-3.12 8.24,-6.77 13.94,-8.25 11.28,-2.93 22.48,3.79 33.81,6.63 18.2,4.56 29.06,9.42 29.87,21 a 37.53,37.53 0 0 1 6.43,5.46 24,24 0 0 1 7.72,13.08 c 1.54,7.89 -1.66,15.91 -5.51,23 -2.19,4 -12.71,24.82 -19.86,22.07 a 44,44 0 0 1 -6.58,6.15 c 0.23,2.4 0.56,4.82 1,7.24 a 16.15,16.15 0 0 0 5.17,1.78 62.77,62.77 0 0 0 11.87,1.04 175.79,175.79 0 0 0 18.72,-1.14 157.48,157.48 0 0 1 18.19,-1 90.07,90.07 0 0 1 9.07,0.43 h 0.47 c 0.61,0.07 1.21,0.14 1.79,0.23 h 0.28 c 0.68,0.1 1.33,0.2 2,0.32 h 0.21 l 1.6,0.31 0.36,0.08 c 0.56,0.12 1.1,0.25 1.63,0.39 v 0 q 0.82,0.21 1.59,0.45 l 0.26,0.08 1.25,0.39 0.27,0.1 c 0.94,0.32 1.83,0.66 2.67,1 l 0.26,0.11 1,0.45 0.19,0.09 1.18,0.55 0.1,0.05 1,0.5 0.25,0.12 1,0.51 h 0.07 l 1.25,0.65 0.75,0.39 0.35,0.18 1,0.52 c 8.79,4.4 94.07,27.26 109,73 l -0.3,0.28 -0.07,0.05 -0.34,0.31 c 0.25,0.67 0.49,1.33 0.71,2 0,0 -1.45,1.3 -3.71,3.42 4,17.49 14.76,62.16 20.41,64.28 7,2.64 14.95,56.27 -3.51,54.51 -18.46,-1.76 -18.47,-44.84 -18.47,-44.84 0,0 -12.17,-32.64 -21.15,-49.21 a 23.16,23.16 0 0 0 -3.52,6.83 l 0.06,0.18 a 1.15,1.15 0 0 1 -0.06,-0.17 4.86,4.86 0 0 0 -0.1,2.31 c -0.87,-2.55 -5.38,-14.26 -14.79,-12.69 -10.05,1.67 -48,-35.71 -51.59,-39.29 0.08,1 0.19,2.18 0.31,3.59 v 0 0.05 c 0.07,0.82 0.15,1.71 0.22,2.66 v 0.3 c 0,0.24 0,0.48 0.05,0.73 0.05,0.25 0,0.32 0,0.48 l 0.06,0.74 c 0,0.17 0,0.35 0,0.52 l 0.06,0.74 c 0,0.22 0,0.45 0,0.67 0,0.22 0.06,0.72 0.08,1.09 0.02,0.37 0.05,0.59 0.07,0.88 0.02,0.29 0,0.42 0,0.63 l 0.06,0.88 c 0,0.2 0,0.4 0,0.6 0,0.2 0,0.62 0.07,0.94 0.07,0.32 0,0.41 0,0.62 l 0.06,1 c 0,0.2 0,0.39 0,0.58 0,0.53 0.07,1.06 0.1,1.6 v 0.21 l 0.09,1.48 v 0.51 c 0,0.4 0.05,0.81 0.07,1.22 v 0.58 c 0,0.42 0.05,0.84 0.07,1.26 v 0.52 c 0,0.5 0,1 0.08,1.52 0,0.1 0,0.19 0,0.29 l 0.09,1.91 v 0.11 c 0,0.58 0,1.16 0.08,1.74 0,0.17 0,0.34 0,0.5 l 0.06,1.43 c 0,0.19 0,0.38 0,0.57 0,0.48 0,1 0,1.45 0,0.16 0,0.33 0,0.5 0,1.32 0.09,2.66 0.13,4 0,0.1 0,0.2 0,0.29 0,0.57 0,1.14 0,1.71 0,0.17 0,0.35 0,0.52 0,0.51 0,1 0,1.54 0,0.18 0,0.36 0,0.53 v 1.7 0.34 c 0,1.38 0,2.77 0,4.17 0,0.14 0,0.29 0,0.44 v 1.62 c 0,0.19 0,0.38 0,0.56 0,0.52 0,1 0,1.55 v 0.43 c 0.06,19.18 -1.17,38.7 -5.48,49.84 a 54.88,54.88 0 0 0 -3.6,18.72 76.4,76.4 0 0 0 9.72,33.21 v 0 l -1,-0.32 c 0.12,0.22 0.19,0.33 0.19,0.33 l -0.57,-0.18 c 0.86,1.81 1.45,2.82 1.45,2.82 0,0 -1.28,-0.41 -3.56,-1.08 3.24,11.45 5.41,29.08 -0.84,51.19 0,0 -3.52,19.34 -0.88,26.38 2.64,7.04 5.28,63.3 5.28,63.3 0,0 5.27,7 14.94,2.64 9.67,-4.36 128.28,-19.34 128.28,-19.34 0,0 0.28,0.49 0.74,1.34 3.65,-1.14 8.91,-2.88 12.76,-4.5 -1.42,-2 -2.74,-3.15 -3.83,-3 0,0 6.34,-3.06 13.24,-5.47 v 0 l 1.26,-0.43 h 0.05 l 1.23,-0.4 h 0.08 l 1.18,-0.36 h 0.13 l 1.08,-0.3 0.22,-0.07 1,-0.26 0.26,-0.07 1,-0.22 0.28,-0.06 0.87,-0.18 0.33,-0.06 0.79,-0.13 0.37,-0.06 0.72,-0.08 h 0.39 0.66 0.37 1 0.54 0.34 l 0.48,0.1 0.32,0.07 c 0.14,0 0.27,0.1 0.4,0.15 a 2.49,2.49 0 0 1 0.29,0.11 3.41,3.41 0 0 1 0.38,0.21 c 0.07,0 0.15,0.08 0.21,0.13 a 2.56,2.56 0 0 1 0.48,0.45 c 4.39,5.27 29,106.38 17.58,113.41 -0.34,0.21 -0.67,0.41 -1,0.59 l -0.4,0.23 -0.52,0.29 -0.5,0.27 -0.37,0.19 -0.54,0.26 -0.28,0.13 -0.56,0.24 -0.2,0.08 c -0.2,0.08 -0.4,0.16 -0.59,0.22 h -0.13 l -0.6,0.19 h -0.08 c -6.37,1.72 -8.49,-4.18 -16.22,-16.82 -7.57,-12.39 -17.29,-28 -25.79,-33.78 -0.19,0.41 -0.37,0.84 -0.58,1.25 0,0 -88.8,9.67 -121.33,20.22 -32.53,10.55 -58,24.61 -79.13,0 -18.93,-22.08 -37.85,-93.67 -41.55,-108.19 v 0 0 c -0.26,-1 -0.44,-1.77 -0.55,-2.18 v 0 -0.18 -0.07 -0.07 0 L 524.94,649.56 494,685.5 c 0,0 -43,60.66 -50.95,61.5 -7.95,0.84 -44.84,58.9 -44.84,58.9 l -1.34,-1.44 c -0.32,1.61 -0.56,3.09 -0.74,4.38 3,7 0.21,15.38 -2.43,20.93 v 0 l -0.11,0.22 -0.3,0.61 -0.16,0.32 c -0.1,0.19 -0.19,0.38 -0.29,0.56 l -0.15,0.28 c -0.1,0.2 -0.21,0.39 -0.31,0.58 l -0.15,0.28 -0.24,0.42 -0.12,0.21 c -0.1,0.19 -0.21,0.36 -0.3,0.53 a 1.59,1.59 0 0 0 -0.13,0.22 c -0.07,0.1 -0.13,0.21 -0.19,0.31 -0.06,0.1 -0.07,0.12 -0.11,0.17 l -0.23,0.38 a 1.19,1.19 0 0 0 -0.09,0.15 l -0.15,0.22 -0.06,0.1 -0.15,0.23 v 0 c 0,0.06 -0.06,0.09 -0.08,0.13 v 0 0 c 0,0 -92.32,-22 -103.75,-29 -0.36,-0.22 -0.7,-0.45 -1,-0.68 l -0.29,-0.22 c -0.2,-0.16 -0.4,-0.31 -0.58,-0.47 a 4,4 0 0 1 -0.3,-0.28 c -0.15,-0.14 -0.31,-0.28 -0.44,-0.42 -0.13,-0.14 -0.18,-0.2 -0.27,-0.3 l -0.35,-0.41 z"
       inkscape:connector-curvature="0"
       style="fill:url(#cabf670e-bbb1-4872-bc54-c659c98b3878)" />
    <path
       id="path6442"
       transform="translate(-118.9,-64.16)"
       d="m 819.26,632 c 0,0 20.56,-6 21.41,-8.57 0.85,-2.57 18,47.1 18,47.1 l -17.13,12 c 0,0 -18,-10.27 -27.4,-8.56 -9.4,1.71 5.12,-41.97 5.12,-41.97 z"
       inkscape:connector-curvature="0"
       style="fill:#4c4c56" />
    <path
       id="path6444"
       transform="translate(-118.9,-64.16)"
       d="m 376.53,754.48 c 0,0 -2.53,23.12 -30.83,25.69 -28.3,2.57 18.84,23.12 18.84,23.12 l 36,2.57 c 0,0 0.85,-14.56 6.85,-25.69 6,-11.13 -30.86,-25.69 -30.86,-25.69 z"
       inkscape:connector-curvature="0"
       style="fill:#4c4c56" />
    <path
       id="path6446"
       transform="translate(-118.9,-64.16)"
       d="m 673.68,494.14 c 0,0 16.32,24.86 5.14,64.23 0,0 -3.42,18.84 -0.85,25.69 2.57,6.85 5.13,61.66 5.13,61.66 0,0 5.14,6.85 14.56,2.57 9.42,-4.28 125,-18.84 125,-18.84 0,0 18.84,32.54 8.56,52.24 0,0 -86.49,9.42 -118.17,19.69 -31.68,10.27 -56.52,24 -77.08,0 -20.56,-24 -41.1,-107.9 -41.1,-107.9 l -68.51,52.24 -30,35.11 c 0,0 -42,59.09 -49.67,59.94 -7.67,0.85 -43.67,57.38 -43.67,57.38 l -43.68,-47.1 c 0,0 53.1,-30 59.09,-45.39 5.99,-15.39 35.11,-59.08 35.11,-59.08 0,0 9.42,-34.26 26.55,-42 0,0 61.66,-73.64 67.65,-107.9 5.99,-34.26 102.76,-18 102.76,-18 z"
       inkscape:connector-curvature="0"
       style="fill:#5f5d7e" />
    <path
       id="path6448"
       transform="translate(-118.9,-64.16)"
       d="m 355.12,790.44 c 0,0 -6,-13.7 -4.28,-17.12 1.72,-3.42 -22.27,8.56 -22.27,8.56 0,0 -18,6.85 -32.54,0.86 0,0 -12.84,9.41 -1.71,16.27 11.13,6.86 101.05,28.26 101.05,28.26 0,0 13.7,-19.7 2.57,-30.83 z"
       inkscape:connector-curvature="0"
       style="fill:#986365" />
    <path
       id="path6450"
       transform="translate(-118.9,-64.16)"
       d="m 418.49,705.66 c 6,-15.41 35.11,-59.08 35.11,-59.08 0,0 9.42,-34.26 26.55,-42 0,0 61.66,-73.64 67.65,-107.9 1.24,-7.06 6.34,-12 13.64,-15.32 q 6,17.94 11.95,35.87 8.15,24.5 16.31,49 c 3.14,9.45 6.12,20 5.83,29.76 -0.41,-1.63 -0.63,-2.53 -0.63,-2.53 l -68.51,52.24 -30,35.11 c 0,0 -42,59.09 -49.67,59.94 -7.67,0.85 -43.67,57.38 -43.67,57.38 l -43.68,-47.1 c 0,0 53.13,-29.95 59.12,-45.37 z"
       inkscape:connector-curvature="0"
       style="opacity:0.1" />
    <path
       id="path6452"
       transform="translate(-118.9,-64.16)"
       d="m 534.1,274.06 c 0,0 7.28,18.41 -2.14,35.54 -9.42,17.13 3.85,47.53 12.41,49.24 8.56,1.71 42.82,-20.55 45.39,-35.11 2.57,-14.56 -11.13,-44.53 -4.28,-64.23 z"
       inkscape:connector-curvature="0"
       style="fill:#fdc2cc" />
    <path
       id="path6454"
       transform="translate(-118.9,-64.16)"
       d="m 580.34,305.75 c 0,0 -26.55,53.95 -55.66,15.41 0,0 -29.12,59.09 -19.7,68.51 a 197.16,197.16 0 0 0 21.41,18 l 15.42,107.9 c 0,0 87.34,-30 124.17,-24.83 l -56.52,-135.3 z"
       inkscape:connector-curvature="0"
       style="opacity:0.1" />
    <path
       id="path6456"
       transform="translate(-118.9,-64.16)"
       d="m 580.34,303.18 c 0,0 -26.55,53.95 -55.66,15.41 0,0 -29.12,59.09 -19.7,68.51 a 197.16,197.16 0 0 0 21.41,18 L 541.81,513 c 0,0 87.34,-30 124.19,-24.85 l -56.52,-135.3 z"
       inkscape:connector-curvature="0"
       style="fill:#d39999" />
    <path
       id="path6458"
       transform="translate(-118.9,-64.16)"
       d="m 769.6,365.69 c 0,0 14.55,66.8 21.4,69.37 6.85,2.57 14.56,54.8 -3.42,53.09 -17.98,-1.71 -18,-43.67 -18,-43.67 0,0 -18.82,-50.48 -26.53,-56.48 -7.71,-6 26.55,-22.31 26.55,-22.31 z"
       inkscape:connector-curvature="0"
       style="fill:#fdc2cc" />
    <path
       id="path6460"
       transform="translate(-118.9,-64.16)"
       d="m 433.05,396.52 c 0,0 -38.54,-36 -39.39,-42 -0.85,-6 -24,-36.82 -36.83,-28.26 -12.83,8.56 10.28,48.81 14.56,49.67 4.28,0.86 54.81,56.52 54.81,56.52 z"
       inkscape:connector-curvature="0"
       style="fill:#fdc2cc" />
    <path
       id="path6462"
       transform="translate(-118.9,-64.16)"
       d="m 584.2,289.05 c 0,0 4.71,5.56 36.39,2.14 31.68,-3.42 39.39,2.57 48,6.85 8.61,4.28 91.63,26.55 106.18,71.08 0,0 -32.54,29.11 -29.11,36.82 0,0 -4.28,-14.56 -14.56,-12.84 -10.28,1.72 -50.53,-38.54 -50.53,-38.54 0,0 7.71,75.36 -2.56,101.91 -10.27,26.55 5.13,53.09 5.13,53.09 0,0 -72.79,-23.12 -105.33,-12 0,0 -18.84,-84.78 -2.57,-119 16.27,-34.22 -6.85,-66.8 -6.85,-66.8 z"
       inkscape:connector-curvature="0"
       style="opacity:0.1" />
    <path
       id="path6464"
       transform="translate(-118.9,-64.16)"
       d="m 583.34,286.48 c 0,0 4.71,5.57 36.39,2.14 31.68,-3.43 39.4,2.57 48,6.85 8.6,4.28 91.59,26.53 106.15,71.08 0,0 -32.54,29.11 -29.12,36.82 0,0 -4.28,-14.56 -14.56,-12.84 -10.28,1.72 -50.52,-38.53 -50.52,-38.53 0,0 7.71,75.36 -2.57,101.91 -10.28,26.55 5.14,53.09 5.14,53.09 0,0 -72.79,-23.12 -105.33,-12 0,0 -18.84,-84.78 -2.57,-119 16.27,-34.22 -6.85,-66.8 -6.85,-66.8 z"
       inkscape:connector-curvature="0"
       style="opacity:0.1" />
    <path
       id="path6466"
       transform="translate(-118.9,-64.16)"
       d="m 584.2,286.48 c 0,0 4.71,5.57 36.39,2.14 31.68,-3.43 39.39,2.57 48,6.85 8.61,4.28 91.59,26.53 106.14,71.08 0,0 -32.54,29.11 -29.11,36.82 0,0 -4.28,-14.56 -14.56,-12.84 -10.28,1.72 -50.53,-38.53 -50.53,-38.53 0,0 7.71,75.36 -2.56,101.91 -10.27,26.55 5.13,53.09 5.13,53.09 0,0 -72.79,-23.12 -105.33,-12 0,0 -18.84,-84.78 -2.57,-119 16.27,-34.22 -6.85,-66.8 -6.85,-66.8 z"
       inkscape:connector-curvature="0"
       style="fill:#ec7580" />
    <path
       id="path6468"
       transform="translate(-118.9,-64.16)"
       d="m 536.24,301.89 c 0,0 -12.42,18.42 -29.54,24.41 -17.12,5.99 -24,42.82 -24,42.82 L 457,404.23 426.2,388.81 c 0,0 -0.86,42 -9.42,41.11 0,0 21.41,27.4 38.53,28.26 17.12,0.86 65.09,-40.25 65.09,-40.25 0,0 5.14,37.68 1.71,55.66 -3.43,17.98 21.41,72.79 21.41,72.79 l 34.25,-6.85 c 0,0 -18,-68.51 -40.25,-79.64 0,0 0,-46.24 3.43,-57.38 3.43,-11.14 -22.27,-53.09 -18.84,-61.65 1.92,-4.81 9.47,-15.08 13.27,-24.41 a 24.4,24.4 0 0 0 0.86,-14.56 z"
       inkscape:connector-curvature="0"
       style="opacity:0.1" />
    <path
       id="path6470"
       transform="translate(-118.9,-64.16)"
       d="m 533.67,300.18 c 0,0 -12.42,18.41 -29.54,24.41 -17.12,6 -24,42.81 -24,42.81 l -25.69,35.11 -30.81,-15.41 c 0,0 -0.86,42 -9.42,41.11 0,0 21.41,27.4 38.54,28.26 17.13,0.86 65.08,-40.25 65.08,-40.25 0,0 5.14,37.68 1.71,55.66 -3.43,17.98 21.46,72.79 21.46,72.79 l 34.25,-6.85 c 0,0 -18,-68.51 -40.24,-79.64 0,0 0,-46.25 3.42,-57.38 3.42,-11.13 -22.26,-53.09 -18.84,-61.66 1.92,-4.8 9.47,-15.07 13.27,-24.4 a 24.4,24.4 0 0 0 0.81,-14.56 z"
       inkscape:connector-curvature="0"
       style="opacity:0.1" />
    <path
       id="path6472"
       transform="translate(-118.9,-64.16)"
       d="m 535.38,300.18 c 0,0 -12.38,18.41 -29.54,24.41 -17.16,6 -24,42.81 -24,42.81 l -25.69,35.11 -30.81,-15.41 c 0,0 -0.85,42 -9.42,41.11 0,0 21.41,27.4 38.54,28.26 17.13,0.86 65.08,-40.25 65.08,-40.25 0,0 5.14,37.68 1.71,55.66 -3.43,17.98 21.41,72.79 21.41,72.79 l 34.26,-6.85 c 0,0 -18,-68.51 -40.25,-79.64 0,0 0,-46.25 3.42,-57.38 3.42,-11.13 -22.26,-53.09 -18.84,-61.66 1.93,-4.8 9.48,-15.07 13.28,-24.4 a 24.45,24.45 0 0 0 0.85,-14.56 z"
       inkscape:connector-curvature="0"
       style="fill:#ec7580" />
    <path
       id="path6474"
       transform="translate(-118.9,-64.16)"
       d="m 533.93,301.63 c 0,0 -12.41,18.37 -29.54,24.37 -17.13,6 -24,42.81 -24,42.81 L 454.72,404 423.89,388.59 c 0,0 -0.85,42 -9.42,41.1 0,0 21.41,27.41 38.54,28.26 17.13,0.85 65.08,-40.24 65.08,-40.24 0,0 5.14,37.68 1.71,55.66 -3.43,17.98 21.41,72.79 21.41,72.79 l 34.26,-6.85 c 0,0 -18,-68.51 -40.25,-79.64 0,0 0,-46.25 3.42,-57.38 3.42,-11.13 -22.26,-53.09 -18.84,-61.66 1.93,-4.8 9.48,-15.08 13.28,-24.4 a 24.45,24.45 0 0 0 0.85,-14.6 z"
       inkscape:connector-curvature="0"
       style="opacity:0.05" />
    <path
       id="path6476"
       transform="translate(-118.9,-64.16)"
       d="m 832.11,623.45 c 0,0 24.83,-12 29.12,-6.85 4.29,5.15 28.25,103.62 17.12,110.47 -11.13,6.85 -12,1.71 -21.41,-13.7 -9.41,-15.41 -22.26,-36 -31.68,-35.11 0,0 27.4,-9.42 26.55,-12.85 -0.85,-3.43 -13.71,-42.81 -19.7,-41.96 z"
       inkscape:connector-curvature="0"
       style="fill:#986365" />
    <path
       id="path6478"
       transform="translate(-118.9,-64.16)"
       d="m 583.93,281.64 a 42.82,42.82 0 0 1 -47.72,2.69 43,43 0 0 0 -2.11,-8.56 l 51.38,-14.55 c -2.12,6.08 -2.27,13.14 -1.55,20.42 z"
       inkscape:connector-curvature="0"
       style="opacity:0.1" />
    <circle
       id="circle6482"
       r="42.82"
       cy="181.64"
       cx="439.17001"
       style="fill:#fdc2cc" />
    <path
       id="path6484"
       transform="translate(-118.9,-64.16)"
       d="m 591.36,239.27 c -2.07,-8.4 -8.05,-16.25 -16.39,-18.58 -7.09,-2 -14.63,0.17 -21.55,2.68 -6.92,2.51 -14,5.44 -21.34,5 -7.34,-0.44 -15.06,-5.5 -15.62,-12.84 a 6.15,6.15 0 0 1 0.53,-3.32 8.06,8.06 0 0 1 3.07,-2.83 c 10.77,-6.87 23,-12.28 35.79,-12.07 10.51,0.17 20.55,4.11 30.32,8 12.33,4.9 26.34,11.75 28.88,24.76 1.5,7.69 -1.61,15.5 -5.36,22.37 -2.17,4 -12.7,24.8 -19.67,21.37 -2.81,-1.38 2.67,-29.14 1.34,-34.54 z"
       inkscape:connector-curvature="0"
       style="opacity:0.1" />
    <path
       id="path6488"
       transform="translate(-118.9,-64.16)"
       d="m 875.78,727.93 c 11.14,-6.85 -12.84,-105.33 -17.12,-110.47 -1.88,-2.25 -7.71,-1.21 -13.66,0.66 6.76,-2.36 14.08,-4.09 16.23,-1.52 4.28,5.14 28.25,103.62 17.12,110.47 a 20.13,20.13 0 0 1 -6.21,2.83 30.9,30.9 0 0 0 3.64,-1.97 z"
       inkscape:connector-curvature="0"
       style="opacity:0.5;fill:#ffffff" />
    <path
       id="path6490"
       transform="translate(-118.9,-64.16)"
       d="m 291.19,788 c -1.15,2.95 -0.8,6.37 4,9.31 11.13,6.85 101.05,28.26 101.05,28.26 a 44.63,44.63 0 0 0 2.45,-4.16 46.12,46.12 0 0 1 -3.31,5.88 c 0,0 -89.93,-21.43 -101.06,-28.29 -5.75,-3.53 -5.1,-7.76 -3.13,-11 z"
       inkscape:connector-curvature="0"
       style="opacity:0.5;fill:#ffffff" />
    <g
       id="g6504"
       style="opacity:0.05">
      <path
         id="path6492"
         transform="translate(-118.9,-64.16)"
         d="m 741,394.79 c 7.12,-11.45 26.84,-29.1 26.84,-29.1 -14.56,-44.53 -97.62,-66.79 -106.18,-71.08 -4.73,-2.36 -9.2,-5.24 -17.57,-6.77 13.07,1 18.54,4.7 24.42,7.63 8.56,4.28 91.63,26.55 106.18,71.08 0,0 -31.27,28 -29.27,36.34 a 26.88,26.88 0 0 0 -4.42,-8.1 z"
         inkscape:connector-curvature="0" />
      <path
         id="path6494"
         transform="translate(-118.9,-64.16)"
         d="m 745.46,402.89 0.16,0.48 a 2.46,2.46 0 0 1 -0.16,-0.48 z"
         inkscape:connector-curvature="0" />
      <path
         id="path6496"
         transform="translate(-118.9,-64.16)"
         d="m 583.21,287.89 1,-1.41 c 0,0 1.09,1.28 5.69,2.23 a 51.79,51.79 0 0 1 -6.69,-0.82 z"
         inkscape:connector-curvature="0" />
      <path
         id="path6498"
         transform="translate(-118.9,-64.16)"
         d="m 730.13,390.57 a 11.35,11.35 0 0 1 -3.74,-1 9.33,9.33 0 0 1 3.74,1 z"
         inkscape:connector-curvature="0" />
      <path
         id="path6500"
         transform="translate(-118.9,-64.16)"
         d="m 618.71,493.07 c -15.32,-1.69 -30.28,-1.71 -40.94,1.93 0,0 -0.2,-0.89 -0.53,-2.51 11.68,-2.27 26.69,-1.49 41.47,0.58 z"
         inkscape:connector-curvature="0" />
      <path
         id="path6502"
         transform="translate(-118.9,-64.16)"
         d="m 675.51,504.74 c -3,-5.77 -13.29,-28.73 -4.4,-51.7 10.28,-26.55 2.57,-101.91 2.57,-101.91 0,0 2.94,2.94 7.43,7.19 1.58,18.68 5.32,73.68 -3.11,95.58 -10.31,26.54 5.1,53.1 5.1,53.1 0,0 -2.82,-0.91 -7.59,-2.26 z"
         inkscape:connector-curvature="0" />
    </g>
    <path
       id="path6486"
       d="m -1084.8051,86.2654 c 1.4039,-8.978054 5.4665,-17.347606 11.1228,-19.834992 4.8085,-2.135095 1.0937,-7.089093 5.7869,-4.409552 4.6932,2.679541 16.7656,-2.501779 21.7437,-2.971494 4.9781,-0.469716 11.7719,9.697619 12.1517,1.861836 0.088,-1.21196 -0.039,-2.43867 -0.3661,-3.544251 -0.5164,-1.269776 -1.231,-2.309947 -2.0755,-3.021158 -7.3111,-7.323362 -9.3669,-19.330698 -18.0482,-19.117191 -7.1634,0.144896 -25.5598,5.000676 -28.3533,14.252957 -8.3556,5.230971 -16.3062,13.062983 -18.0289,26.951755 -1.0173,8.198749 1.0987,16.536273 3.6421,23.87031 1.4649,4.27019 8.6065,26.48581 13.3337,22.82414 1.9058,-1.46254 -1.8244,-31.054904 -0.9089,-36.86236 z"
       inkscape:connector-curvature="0"
       style="fill:#865a61;stroke-width:0.85089678"
       sodipodi:nodetypes="ccssccccccccc" />
    <path
       id="path6486-3"
       d="m -979.50275,81.507963 c -1.77689,-8.306758 -1.72548,-7.23993 -8.88447,-11.498434 -6.08606,-3.638062 -22.94508,-12.810413 -28.88508,-12.230675 -5.9402,0.579679 -12.0176,1.50787 -18.3183,-0.7491 -6.3006,-2.256931 -12.9274,-8.895628 -13.4082,-15.831408 -0.1115,-1.08367 0.049,-2.100269 0.4635,-2.937253 0.6535,-0.9092 1.5579,-1.545661 2.6268,-1.848599 9.2534,-3.633846 19.7431,-5.562475 30.7307,-2.151771 9.0217,2.815079 17.64013,8.992397 26.02663,15.046094 10.57552,7.640517 16.37835,15.165742 18.55876,27.849189 1.28754,7.487355 4.84128,16.279643 1.62221,21.694193 -1.8541,3.158511 -4.14186,18.115441 -10.12483,13.183901 -2.41214,-1.97632 7.50233,-27.842149 -0.40772,-30.526137 z"
       inkscape:connector-curvature="0"
       style="fill:#865a61;stroke-width:0.89141542"
       sodipodi:nodetypes="cccsccccccccc" />
    <path
       id="path6480-6"
       d="m -1041.2107,82.826709 c 11.1609,0.90261 24.7485,-1.051383 28.8644,-8.103615 1.1866,-1.983742 1.4432,-4.255136 2.6512,-6.278564 3.4958,-5.842138 13.51279,-8.232557 21.55191,-11.43632 8.6594,-3.451719 15.8861,-8.520198 20.654,-14.491288 a 18.270011,16.95114 0 0 0 -9.6214,0.178532 c -0.3955,-3.967494 4.5007,-8.401173 0.6949,-11.396634 -2.3519,-1.854811 -6.735,-1.686195 -10.0918,-0.763742 -3.3568,0.922442 -6.4142,2.430084 -9.98492,2.836761 -6.21119,0.704224 -12.06959,-2.082946 -16.50609,-5.098239 -4.4366,-3.015304 -8.5524,-6.546372 -14.507,-7.934999 -11.7595,-2.836761 -23.4121,3.66002 -35.2144,6.397588 -24.1925,5.623931 -35.92,11.714046 -29.3453,31.234139 4.9497,14.382189 30.5533,23.229715 50.8545,24.856381 z"
       inkscape:connector-curvature="0"
       style="fill:#865a61;stroke-width:1.02973819" />
  </g>
</svg>
